<svg width="28" height="25" viewBox="0 0 28 25" fill="none" xmlns="http://www.w3.org/2000/svg">
<path d="M27.1256 7.05943L25.5723 18.1673C25.3691 19.5821 24.8162 20.5866 23.945 21.1601C23.6434 21.3154 23.3135 21.1589 23.3135 20.8444V9.72357C23.3135 6.34632 21.2967 4.32956 17.9195 4.32956C17.9195 4.32956 6.12419 4.32956 5.73585 4.32956C5.34751 4.32956 5.33844 3.97988 5.36562 3.82454C5.57014 2.59998 6.05435 1.69385 6.80514 1.12817C7.59088 0.536603 8.65236 0.330912 9.96623 0.51602L23.6371 2.4318C24.9535 2.6182 25.9217 3.11146 26.5145 3.89849C27.1061 4.68423 27.312 5.74814 27.1256 7.05943ZM21.3718 9.7223V20.9426C21.3718 23.2442 20.221 24.395 17.9195 24.395H4.11003C1.80848 24.395 0.657715 23.2442 0.657715 20.9426V9.7223C0.657715 7.42075 1.80848 6.26999 4.11003 6.26999H17.9195C20.221 6.26999 21.3718 7.41946 21.3718 9.7223ZM2.59814 9.7223V19.0139L4.45308 17.1588C4.8932 16.7058 5.63105 16.7058 6.08412 17.1588L7.15846 18.2333C7.37852 18.4534 7.75392 18.4534 7.97398 18.2333L13.6567 12.5508C14.0968 12.1107 14.8347 12.1107 15.2877 12.5508L19.4301 16.7034V9.7223C19.4301 8.49386 19.1479 8.21168 17.9195 8.21168H4.11003C2.88029 8.21168 2.59814 8.49386 2.59814 9.7223ZM6.48405 13.392C7.1973 13.392 7.77598 12.8121 7.77598 12.0976C7.77598 11.383 7.1973 10.8031 6.48405 10.8031H6.47378C5.76053 10.8031 5.18706 11.383 5.18706 12.0976C5.18706 12.8121 5.7708 13.392 6.48405 13.392Z" fill="black"/>
</svg>
