<svg width="54" height="53" viewBox="0 0 54 53" fill="none" xmlns="http://www.w3.org/2000/svg">
<rect x="1.05698" y="0.551364" width="51.8283" height="51.8283" rx="25.9141" stroke="black" stroke-width="1.10273"/>
<path d="M36.8957 26.4651C36.8957 27.0738 36.4028 27.5679 35.793 27.5679H20.8114L23.3399 30.0964C23.7711 30.5275 23.7711 31.2245 23.3399 31.6557C23.1249 31.8707 22.8426 31.9788 22.5603 31.9788C22.278 31.9788 21.9956 31.8707 21.7806 31.6557L17.3708 27.2459C17.2682 27.1433 17.1877 27.0221 17.1314 26.8865C17.02 26.6174 17.02 26.3129 17.1314 26.0438C17.1877 25.9082 17.2682 25.7869 17.3708 25.6844L21.7806 21.2745C22.2118 20.8434 22.9088 20.8434 23.3399 21.2745C23.7711 21.7057 23.7711 22.4027 23.3399 22.8339L20.8114 25.3624H35.793C36.4028 25.3624 36.8957 25.8564 36.8957 26.4651Z" fill="black"/>
</svg>
