<svg width="21" height="21" viewBox="0 0 21 21" fill="none" xmlns="http://www.w3.org/2000/svg">
<path d="M20.4701 8.39547H1.28278C1.09972 8.39547 0.951904 8.54328 0.951904 8.72634V17.493C0.951904 19.6984 2.05463 20.8012 4.26009 20.8012H17.4928C19.6983 20.8012 20.801 19.6984 20.801 17.493V8.72634C20.801 8.54328 20.6532 8.39547 20.4701 8.39547ZM6.48762 17.493C5.87892 17.493 5.37924 16.999 5.37924 16.3902C5.37924 15.7815 5.86788 15.2875 6.47659 15.2875H6.48762C7.09743 15.2875 7.59035 15.7815 7.59035 16.3902C7.59035 16.999 7.09633 17.493 6.48762 17.493ZM6.48762 13.0821C5.87892 13.0821 5.37924 12.588 5.37924 11.9793C5.37924 11.3706 5.86788 10.8766 6.47659 10.8766H6.48762C7.09743 10.8766 7.59035 11.3706 7.59035 11.9793C7.59035 12.588 7.09633 13.0821 6.48762 13.0821ZM10.8985 17.493C10.2898 17.493 9.79016 16.999 9.79016 16.3902C9.79016 15.7815 10.2788 15.2875 10.8875 15.2875H10.8985C11.5083 15.2875 12.0013 15.7815 12.0013 16.3902C12.0013 16.999 11.5072 17.493 10.8985 17.493ZM10.8985 13.0821C10.2898 13.0821 9.79016 12.588 9.79016 11.9793C9.79016 11.3706 10.2788 10.8766 10.8875 10.8766H10.8985C11.5083 10.8766 12.0013 11.3706 12.0013 11.9793C12.0013 12.588 11.5072 13.0821 10.8985 13.0821ZM15.3095 17.493C14.7007 17.493 14.2011 16.999 14.2011 16.3902C14.2011 15.7815 14.6897 15.2875 15.2984 15.2875H15.3095C15.9193 15.2875 16.4122 15.7815 16.4122 16.3902C16.4122 16.999 15.9182 17.493 15.3095 17.493ZM15.3095 13.0821C14.7007 13.0821 14.2011 12.588 14.2011 11.9793C14.2011 11.3706 14.6897 10.8766 15.2984 10.8766H15.3095C15.9193 10.8766 16.4122 11.3706 16.4122 11.9793C16.4122 12.588 15.9182 13.0821 15.3095 13.0821ZM20.801 5.91433V6.4105C20.801 6.59355 20.6532 6.74137 20.4701 6.74137H1.28278C1.09972 6.74137 0.951904 6.59355 0.951904 6.4105V5.91433C0.951904 3.70887 2.05463 2.60614 4.26009 2.60614H5.6385V0.952047C5.6385 0.499928 6.01343 0.125 6.46555 0.125C6.91767 0.125 7.29259 0.499928 7.29259 0.952047V2.60614H14.4603V0.952047C14.4603 0.499928 14.8353 0.125 15.2874 0.125C15.7395 0.125 16.1144 0.499928 16.1144 0.952047V2.60614H17.4928C19.6983 2.60614 20.801 3.70887 20.801 5.91433Z" fill="#FFD600"/>
</svg>
