<svg width="26" height="26" viewBox="0 0 26 26" fill="none" xmlns="http://www.w3.org/2000/svg">
<path fill-rule="evenodd" clip-rule="evenodd" d="M12.7654 0.617188C5.96966 0.617188 0.460938 6.12591 0.460938 12.9217C0.460938 19.7175 5.96966 25.2262 12.7654 25.2262C19.5612 25.2262 25.0699 19.7175 25.0699 12.9217C25.0699 6.12591 19.5612 0.617188 12.7654 0.617188ZM17.109 17.2652C16.9293 17.4449 16.693 17.5359 16.4568 17.5359C16.2205 17.5359 15.9843 17.4461 15.8046 17.2652L12.1133 13.5739C11.9398 13.4004 11.8426 13.1653 11.8426 12.9217V6.76944C11.8426 6.26003 12.256 5.8466 12.7654 5.8466C13.2748 5.8466 13.6883 6.26003 13.6883 6.76944V12.539L17.109 15.9597C17.4695 16.3214 17.4695 16.9047 17.109 17.2652Z" fill="#FFD600"/>
</svg>
