<svg width="26" height="26" viewBox="0 0 26 26" fill="none" xmlns="http://www.w3.org/2000/svg">
<path d="M6.625 21.4439C6.625 22.478 6.93667 23.413 7.51751 24.2205C3.72084 23.9796 0.25 22.5914 0.25 20.0272V18.7805C1.7375 19.9422 3.93333 20.7213 6.625 20.9763V21.4439ZM6.68164 15.678C6.66747 15.6922 6.66754 15.7063 6.66754 15.7205C6.63921 15.8621 6.625 16.0039 6.625 16.1455V18.8513C3.19667 18.4547 0.25 17.0947 0.25 14.7289V13.4822C1.7375 14.658 3.94754 15.4372 6.66754 15.678H6.68164V15.678ZM12.2067 10.4931C10.0533 11.1589 8.36751 12.2497 7.43251 13.6097C3.66418 13.3688 0.25 11.9806 0.25 9.43056V8.46715C2.10583 9.92632 5.08083 10.7763 8.75 10.7763C9.9825 10.7763 11.1442 10.6772 12.2067 10.4931ZM17.25 8.46715V9.43056C17.25 9.55806 17.2358 9.6714 17.2216 9.78473C16.1025 9.78473 15.04 9.88381 14.0483 10.0538C15.3233 9.67131 16.4 9.13299 17.25 8.46715ZM8.75 0.179688C4.5 0.179688 0.25 1.59634 0.25 4.41551C0.25 7.26301 4.5 8.65133 8.75 8.65133C13 8.65133 17.25 7.26301 17.25 4.41551C17.25 1.59634 13 0.179688 8.75 0.179688ZM17.25 22.5064C13.6942 22.5064 10.6625 21.5714 8.75 20.0556V21.4439C8.75 24.263 13 25.6797 17.25 25.6797C21.5 25.6797 25.75 24.263 25.75 21.4439V20.0556C23.8375 21.5714 20.8058 22.5064 17.25 22.5064ZM17.25 11.9097C12.5608 11.9097 8.75 13.808 8.75 16.1455C8.75 18.483 12.5608 20.3814 17.25 20.3814C21.9392 20.3814 25.75 18.483 25.75 16.1455C25.75 13.808 21.9392 11.9097 17.25 11.9097Z" fill="black"/>
</svg>
