<svg width="45" height="36" viewBox="0 0 45 36" fill="none" xmlns="http://www.w3.org/2000/svg">
<path d="M44.0526 19.2123L28.7486 34.5163C28.3222 34.9427 27.7624 35.1569 27.2026 35.1569C26.6429 35.1569 26.083 34.9427 25.6566 34.5163C24.8017 33.6614 24.8017 32.2793 25.6566 31.4244L37.2302 19.8508H3.15015C1.94097 19.8508 0.963562 18.8712 0.963562 17.6642C0.963562 16.4572 1.94097 15.4776 3.15015 15.4776H37.2302L25.6566 3.90409C24.8017 3.04913 24.8017 1.66707 25.6566 0.812116C26.5116 -0.0428406 27.8937 -0.0428406 28.7486 0.812116L44.0526 16.1161C44.256 16.3195 44.4157 16.5598 44.5272 16.8288C44.748 17.3623 44.748 17.9661 44.5272 18.4997C44.4157 18.7686 44.256 19.009 44.0526 19.2123Z" fill="black"/>
</svg>
