<svg width="24" height="19" viewBox="0 0 24 19" fill="none" xmlns="http://www.w3.org/2000/svg">
<path d="M19.4022 0.166992H4.43669C1.94244 0.166992 0.695312 1.41412 0.695312 3.90837V15.1325C0.695312 17.6268 1.94244 18.8739 4.43669 18.8739H19.4022C21.8965 18.8739 23.1436 17.6268 23.1436 15.1325V3.90837C23.1436 1.41412 21.8965 0.166992 19.4022 0.166992ZM19.3285 5.91126L13.2028 10.366C12.8187 10.6453 12.3684 10.785 11.9195 10.785C11.4705 10.785 11.019 10.6453 10.6361 10.3672L4.51037 5.91126C4.09259 5.60821 4.00025 5.02205 4.30455 4.60427C4.6076 4.18773 5.18982 4.09295 5.61135 4.3985L11.7374 8.85322C11.8471 8.93179 11.993 8.93304 12.1027 8.85322L18.2288 4.3985C18.649 4.09295 19.2325 4.18773 19.5356 4.60427C19.8399 5.0233 19.7463 5.60821 19.3285 5.91126Z" fill="#FFD600"/>
</svg>
