<svg width="36" height="36" viewBox="0 0 36 36" fill="none" xmlns="http://www.w3.org/2000/svg">
<path d="M17.8166 2.3291C9.17515 2.3291 2.146 9.35971 2.146 17.9997C2.146 26.6396 9.17515 33.6702 17.8166 33.6702C26.458 33.6702 33.4871 26.6396 33.4871 17.9997C33.4871 9.35971 26.458 2.3291 17.8166 2.3291ZM4.33259 17.9997C4.33259 16.4457 4.60953 14.9588 5.09641 13.5682C6.0002 20.1425 11.767 20.6979 12.0163 21.746C12.2932 22.9268 12.0163 23.2766 12.1183 25.3029C12.2203 27.3291 15.0192 27.3582 16.0979 28.9617C16.4157 29.4282 16.5994 30.4268 16.5207 31.418C9.69122 30.7635 4.33259 24.9967 4.33259 17.9997ZM21.4755 30.9661C22.4682 27.8568 25.4492 26.8029 25.7524 25.0055C25.9958 23.5638 24.1008 22.8262 22.3996 22.6163C20.7145 22.4224 20.958 20.6571 19.7597 19.4093C18.5615 18.1615 17.7772 18.2329 16.0935 18.4428C14.3923 18.6367 12.9667 18.5157 12.4958 17.4793C12.0425 16.4428 12.6256 15.9472 11.3865 14.6629C10.3544 13.5929 11.4623 12.6338 12.0133 12.504C12.888 12.2941 14.4433 13.8233 15.3544 13.6367C18.0993 13.0711 14.8107 7.69935 18.9332 6.34804C19.6547 6.11188 20.3296 5.53758 20.6693 4.8262C23.025 5.33641 25.1445 6.46758 26.8675 8.03317C27.3413 9.38157 27.6708 10.9297 27.3952 11.7504C26.8442 13.4516 25.4609 14.6746 26.9711 17.4588C28.5469 20.3655 29.5191 20.7606 30.2276 19.9618C30.5089 19.644 30.8749 19.4195 31.2393 19.2839C30.7043 24.8772 26.7393 29.4778 21.4755 30.9661Z" fill="#FFD600"/>
</svg>
