<svg width="30" height="31" viewBox="0 0 30 31" fill="none" xmlns="http://www.w3.org/2000/svg">
<path d="M15.8994 9.20456C18.1157 9.20456 19.6107 10.1619 20.4632 10.9619L23.7941 7.70948C21.7483 5.80784 19.0862 4.64062 15.8994 4.64062C11.2833 4.64062 7.29656 7.2898 5.35566 11.1455L9.17188 14.1095C10.1292 11.2636 12.7783 9.20456 15.8994 9.20456Z" fill="white"/>
<path d="M27.23 16.7062C27.23 15.7357 27.1513 15.0275 26.9809 14.2931H15.8994V18.6734H22.404C22.2729 19.7619 21.5647 21.4013 19.991 22.5029L23.7154 25.3881C25.9448 23.3291 27.23 20.2996 27.23 16.7062Z" fill="white"/>
<path d="M9.18496 18.7783C8.9358 18.0439 8.79154 17.257 8.79154 16.4439C8.79154 15.6308 8.93582 14.8439 9.17188 14.1095L5.35566 11.1455C4.5557 12.7455 4.09668 14.5422 4.09668 16.4439C4.09668 18.3455 4.55567 20.1422 5.35564 21.7422L9.18496 18.7783Z" fill="white"/>
<path d="M15.8994 28.2471C19.0861 28.2471 21.7614 27.198 23.7154 25.3881L19.991 22.5029C18.9943 23.198 17.6567 23.6832 15.8994 23.6832C12.7782 23.6832 10.1292 21.6242 9.18496 18.7783L5.36873 21.7422C7.30962 25.5979 11.2832 28.2471 15.8994 28.2471Z" fill="white"/>
<path d="M15.5781 8.80514C17.7944 8.80514 19.2894 9.76252 20.1419 10.5625L23.4729 7.31006C21.427 5.40842 18.7649 4.24121 15.5781 4.24121C10.962 4.24121 6.97527 6.89039 5.03438 10.7461L8.85059 13.7101C9.80792 10.8642 12.457 8.80514 15.5781 8.80514Z" fill="white"/>
<path d="M26.9087 16.3068C26.9087 15.3363 26.83 14.6281 26.6596 13.8937H15.5781V18.274H22.0827C21.9516 19.3625 21.2434 21.0018 19.6697 22.1035L23.3941 24.9887C25.6235 22.9297 26.9087 19.9002 26.9087 16.3068Z" fill="white"/>
<path d="M8.86367 18.3789C8.61451 17.6445 8.47025 16.8576 8.47025 16.0445C8.47025 15.2313 8.61454 14.4445 8.85059 13.7101L5.03438 10.7461C4.23441 12.3461 3.77539 14.1428 3.77539 16.0445C3.77539 17.9461 4.23439 19.7428 5.03435 21.3428L8.86367 18.3789Z" fill="white"/>
<path d="M15.5781 27.8477C18.7648 27.8477 21.4401 26.7986 23.3941 24.9887L19.6697 22.1035C18.6731 22.7986 17.3354 23.2838 15.5781 23.2838C12.4569 23.2838 9.80789 21.2248 8.86367 18.3789L5.04744 21.3428C6.98833 25.1985 10.9619 27.8477 15.5781 27.8477Z" fill="white"/>
</svg>
