<svg width="31" height="31" viewBox="0 0 31 31" fill="none" xmlns="http://www.w3.org/2000/svg">
<path d="M10.3722 15.3979C10.3722 12.6554 12.596 10.4316 15.3401 10.4316C18.0841 10.4316 20.3091 12.6554 20.3091 15.3979C20.3091 18.1405 18.0841 20.3643 15.3401 20.3643C12.596 20.3643 10.3722 18.1405 10.3722 15.3979ZM7.68602 15.3979C7.68602 19.623 11.1127 23.0478 15.3401 23.0478C19.5674 23.0478 22.9941 19.623 22.9941 15.3979C22.9941 11.1729 19.5674 7.74802 15.3401 7.74802C11.1127 7.74802 7.68602 11.1729 7.68602 15.3979ZM21.5084 7.4447C21.5083 7.79828 21.613 8.14397 21.8095 8.43804C22.0059 8.73211 22.2851 8.96136 22.6119 9.09681C22.9387 9.23225 23.2984 9.26779 23.6454 9.19895C23.9924 9.13011 24.3112 8.95997 24.5614 8.71005C24.8117 8.46013 24.9822 8.14165 25.0513 7.79489C25.1205 7.44812 25.0852 7.08865 24.9499 6.76193C24.8147 6.43521 24.5855 6.15591 24.2915 5.95935C23.9974 5.76279 23.6516 5.6578 23.2978 5.65766H23.2971C22.8229 5.65788 22.3682 5.84621 22.0328 6.18127C21.6974 6.51634 21.5088 6.97075 21.5084 7.4447ZM9.31805 27.5245C7.86477 27.4583 7.07487 27.2164 6.54995 27.012C5.85402 26.7412 5.35747 26.4187 4.8354 25.8976C4.31333 25.3766 3.99017 24.8808 3.72043 24.1852C3.5158 23.6608 3.27373 22.8711 3.20767 21.4186C3.1354 19.8482 3.12097 19.3765 3.12097 15.398C3.12097 11.4196 3.1366 10.9492 3.20767 9.37749C3.27385 7.92501 3.51771 7.13685 3.72043 6.61089C3.99136 5.91534 4.31405 5.41906 4.8354 4.89727C5.35675 4.37549 5.85282 4.0525 6.54995 3.78291C7.07464 3.57839 7.86477 3.33645 9.31805 3.27042C10.8893 3.19819 11.3612 3.18377 15.3401 3.18377C19.3189 3.18377 19.7913 3.19938 21.3639 3.27042C22.8171 3.33656 23.6057 3.5803 24.132 3.78291C24.8279 4.0525 25.3244 4.3762 25.8465 4.89727C26.3686 5.41834 26.6905 5.91534 26.9615 6.61089C27.1661 7.1353 27.4082 7.92501 27.4742 9.37749C27.5465 10.9492 27.5609 11.4196 27.5609 15.398C27.5609 19.3765 27.5465 19.8469 27.4742 21.4186C27.4081 22.8711 27.1648 23.6606 26.9615 24.1852C26.6905 24.8808 26.3679 25.377 25.8465 25.8976C25.3252 26.4182 24.8279 26.7412 24.132 27.012C23.6073 27.2165 22.8171 27.4585 21.3639 27.5245C19.7927 27.5967 19.3207 27.6111 15.3401 27.6111C11.3594 27.6111 10.8888 27.5967 9.31805 27.5245ZM9.19462 0.590222C7.60779 0.662447 6.52347 0.913924 5.57653 1.2822C4.59583 1.66251 3.76563 2.17274 2.93602 3.00059C2.10641 3.82843 1.59723 4.6595 1.21671 5.63966C0.84823 6.5867 0.596617 7.66984 0.524353 9.25581C0.450896 10.8443 0.434082 11.3521 0.434082 15.3979C0.434082 19.4437 0.450896 19.9516 0.524353 21.54C0.596617 23.1261 0.84823 24.2092 1.21671 25.1562C1.59723 26.1358 2.10653 26.9678 2.93602 27.7953C3.76551 28.6228 4.59583 29.1323 5.57653 29.5137C6.52526 29.8819 7.60779 30.1334 9.19462 30.2056C10.7848 30.2779 11.2921 30.2958 15.3401 30.2958C19.388 30.2958 19.8962 30.279 21.4855 30.2056C23.0724 30.1334 24.1561 29.8819 25.1036 29.5137C26.0837 29.1323 26.9145 28.6231 27.7441 27.7953C28.5737 26.9674 29.0818 26.1358 29.4634 25.1562C29.8319 24.2092 30.0847 23.126 30.1558 21.54C30.228 19.9504 30.2448 19.4437 30.2448 15.3979C30.2448 11.3521 30.228 10.8443 30.1558 9.25581C30.0835 7.66972 29.8319 6.5861 29.4634 5.63966C29.0818 4.6601 28.5724 3.82975 27.7441 3.00059C26.9158 2.17143 26.0837 1.66251 25.1048 1.2822C24.1561 0.913924 23.0723 0.661255 21.4867 0.590222C19.8974 0.517997 19.3892 0.5 15.3413 0.5C11.2933 0.5 10.7848 0.516805 9.19462 0.590222Z" fill="white"/>
</svg>
