<svg width="39" height="40" viewBox="0 0 39 40" fill="none" xmlns="http://www.w3.org/2000/svg">
<path d="M19.3207 4.4502C11.7744 4.4502 5.63525 10.5893 5.63525 18.1357C5.63525 26.1586 13.0882 31.0821 18.0198 34.3392L18.8731 34.9061C19.0084 34.9962 19.1646 35.0413 19.3191 35.0413C19.4737 35.0413 19.6299 34.9962 19.7651 34.9061L20.6184 34.3392C25.5501 31.0821 33.003 26.1586 33.003 18.1357C33.0062 10.5893 26.8671 4.4502 19.3207 4.4502ZM19.3207 22.1608C17.0973 22.1608 15.2956 20.3592 15.2956 18.1357C15.2956 15.9122 17.0973 14.1105 19.3207 14.1105C21.5442 14.1105 23.3459 15.9122 23.3459 18.1357C23.3459 20.3592 21.5442 22.1608 19.3207 22.1608Z" fill="#FFD600"/>
</svg>
