<svg width="18" height="25" viewBox="0 0 18 25" fill="none" xmlns="http://www.w3.org/2000/svg">
<path d="M14.8432 9.17612V6.6094C14.8432 3.34193 12.1868 0.685547 8.91934 0.685547C5.65187 0.685547 2.99549 3.34193 2.99549 6.6094V9.17612C1.12729 9.4667 0.189453 10.6863 0.189453 12.845V20.3278C0.189453 22.822 1.43658 24.0692 3.93083 24.0692H13.9078C16.4021 24.0692 17.6492 22.822 17.6492 20.3278V12.845C17.6492 10.6863 16.7114 9.4667 14.8432 9.17612ZM9.85468 16.5703V19.0807C9.85468 19.597 9.43565 20.016 8.91934 20.016C8.40303 20.016 7.98399 19.597 7.98399 19.0807V16.5389C7.62482 16.2533 7.379 15.8319 7.379 15.3393C7.379 14.4788 8.0713 13.7804 8.93182 13.7804H8.94431C9.80482 13.7804 10.5032 14.4788 10.5032 15.3393C10.5032 15.8531 10.2376 16.2872 9.85468 16.5703ZM12.9725 9.10365H4.86618V6.6094C4.86618 4.37704 6.68698 2.55624 8.91934 2.55624C11.1517 2.55624 12.9725 4.37704 12.9725 6.6094V9.10365Z" fill="#FFD600"/>
</svg>
