<svg width="32" height="32" viewBox="0 0 32 32" fill="none" xmlns="http://www.w3.org/2000/svg">
<path d="M16.5718 24.2884V27.2503C16.5718 27.7862 16.1368 28.2211 15.6009 28.2211C15.065 28.2211 14.6301 27.7862 14.6301 27.2503V24.2884C9.5519 23.7991 5.56885 19.5094 5.56885 14.3056C5.56885 13.7697 6.00379 13.3348 6.53969 13.3348C7.0756 13.3348 7.51054 13.7697 7.51054 14.3056C7.51054 18.7664 11.1402 22.396 15.6009 22.396C20.0616 22.396 23.6913 18.7664 23.6913 14.3056C23.6913 13.7697 24.1262 13.3348 24.6621 13.3348C25.198 13.3348 25.633 13.7697 25.633 14.3056C25.633 19.5094 21.6499 23.7978 16.5718 24.2884ZM15.6009 3.30273C12.3894 3.30273 9.77584 5.91625 9.77584 9.12781V14.3056C9.77584 17.5172 12.3894 20.1307 15.6009 20.1307C18.8125 20.1307 21.426 17.5172 21.426 14.3056V9.12781C21.426 5.91625 18.8125 3.30273 15.6009 3.30273Z" fill="black"/>
</svg>
