<svg width="19" height="24" viewBox="0 0 19 24" fill="none" xmlns="http://www.w3.org/2000/svg">
<path d="M14.7786 0.533203H4.42293C1.83401 0.533203 0.539551 1.82766 0.539551 4.41659V19.9501C0.539551 22.539 1.83401 23.8335 4.42293 23.8335H14.7786C17.3675 23.8335 18.662 22.539 18.662 19.9501V4.41659C18.662 1.82766 17.3675 0.533203 14.7786 0.533203ZM9.60078 21.2446C8.88623 21.2446 8.30631 20.6647 8.30631 19.9501C8.30631 19.2356 8.88623 18.6557 9.60078 18.6557C10.3153 18.6557 10.8952 19.2356 10.8952 19.9501C10.8952 20.6647 10.3153 21.2446 9.60078 21.2446ZM11.5425 5.38743H7.65908C7.12318 5.38743 6.68824 4.95249 6.68824 4.41659C6.68824 3.88068 7.12318 3.44574 7.65908 3.44574H11.5425C12.0784 3.44574 12.5133 3.88068 12.5133 4.41659C12.5133 4.95249 12.0784 5.38743 11.5425 5.38743Z" fill="black"/>
</svg>
