<svg width="27" height="27" viewBox="0 0 27 27" fill="none" xmlns="http://www.w3.org/2000/svg">
<path d="M18.5072 5.61047L17.792 6.81112C17.7144 6.94165 17.573 7.02142 17.4209 7.02142H9.69193C9.53983 7.02142 9.39853 6.94165 9.32086 6.81112L8.60459 5.60837C8.17742 4.88994 8.69412 3.97949 9.53013 3.97949H17.5795C18.4177 3.98057 18.9355 4.89205 18.5072 5.61047ZM22.1867 16.9252C22.1867 19.0826 21.108 23.3975 13.557 23.3975C6.00596 23.3975 4.92725 19.0826 4.92725 16.9252C4.92725 13.3427 7.16125 10.5003 8.92388 8.76248C9.00586 8.68158 9.11266 8.64055 9.227 8.64055H17.887C18.0013 8.64055 18.1092 8.68158 18.1901 8.76248C19.9527 10.5003 22.1867 13.3427 22.1867 16.9252ZM16.2538 17.5864C16.2538 16.4764 15.5095 15.5099 14.4394 15.2348L13.0748 14.8907C12.9022 14.8454 12.7555 14.7483 12.6433 14.6027C12.5365 14.4657 12.4783 14.2887 12.4783 14.1064C12.4783 13.6609 12.8289 13.2996 13.2603 13.2996H13.8547C14.2528 13.2996 14.5861 13.6082 14.6314 14.0181C14.6799 14.4625 15.0737 14.7796 15.5246 14.7332C15.969 14.6847 16.2883 14.2834 16.2398 13.84C16.1233 12.7861 15.353 11.9598 14.366 11.7419V11.5316C14.366 11.085 14.0036 10.7225 13.557 10.7225C13.1104 10.7225 12.7479 11.085 12.7479 11.5316V11.7398C11.6703 11.9781 10.8602 12.9468 10.8602 14.1064C10.8602 14.6469 11.0403 15.1754 11.3607 15.5897C11.6854 16.0158 12.1503 16.3232 12.6746 16.4581L14.0392 16.8022C14.3908 16.8928 14.6357 17.2154 14.6357 17.5864C14.6357 17.8022 14.5527 18.006 14.4006 18.1603C14.2528 18.3113 14.0586 18.3932 13.8536 18.3932H13.2593C12.8612 18.3932 12.5279 18.0847 12.4826 17.6748C12.433 17.2304 12.0392 16.9111 11.5894 16.9597C11.145 17.0082 10.8257 17.4095 10.8742 17.8528C10.9907 18.9067 11.7609 19.7331 12.7479 19.951V20.1613C12.7479 20.6079 13.1104 20.9703 13.557 20.9703C14.0036 20.9703 14.366 20.6079 14.366 20.1613V19.9531C14.8126 19.855 15.2236 19.6316 15.5537 19.2962C16.0057 18.8377 16.2538 18.2304 16.2538 17.5864Z" fill="#FFD600"/>
</svg>
