<svg width="24" height="24" viewBox="0 0 24 24" fill="none" xmlns="http://www.w3.org/2000/svg">
<path d="M20.0733 0.242188H7.7759C5.18698 0.242188 3.89252 1.53665 3.89252 4.12557V5.74365H1.95083C1.41492 5.74365 0.97998 6.17858 0.97998 6.71449C0.97998 7.2504 1.41492 7.68534 1.95083 7.68534H3.89252V16.0993H1.95083C1.41492 16.0993 0.97998 16.5343 0.97998 17.0702C0.97998 17.6061 1.41492 18.041 1.95083 18.041H3.89252V19.6591C3.89252 22.248 5.18698 23.5425 7.7759 23.5425H20.0733C22.6622 23.5425 23.9567 22.248 23.9567 19.6591V4.12557C23.9567 1.53665 22.6622 0.242188 20.0733 0.242188ZM18.7788 10.5979C18.7788 11.4613 18.3478 11.8923 17.4844 11.8923H11.0121C10.1486 11.8923 9.71759 11.4613 9.71759 10.5979V6.71449C9.71759 5.85109 10.1486 5.42003 11.0121 5.42003H17.4844C18.3478 5.42003 18.7788 5.85109 18.7788 6.71449V10.5979Z" fill="black"/>
</svg>
