<svg width="25" height="23" viewBox="0 0 25 23" fill="none" xmlns="http://www.w3.org/2000/svg">
<path d="M19.9772 18.7207C19.9772 21.0584 18.6761 22.3446 16.3154 22.3446H8.10821C5.74753 22.3446 4.44642 21.0572 4.44642 18.7207C4.44642 16.0885 5.94193 13.0146 10.1582 13.0146H14.2642C18.4817 13.0135 19.9772 16.0885 19.9772 18.7207ZM12.2211 10.8541C14.4552 10.8541 16.2717 9.04447 16.2717 6.8207C16.2717 4.59577 14.454 2.78733 12.2211 2.78733C9.98809 2.78733 8.17154 4.59692 8.17154 6.8207C8.17154 9.04447 9.98693 10.8541 12.2211 10.8541ZM20.0232 7.88377H18.1711C18.01 7.88377 17.8719 7.99879 17.8374 8.14835C17.5843 9.24125 17.009 10.2191 16.2153 10.9668C16.0197 11.1509 16.1348 11.473 16.3994 11.542C18.4356 12.0252 19.8506 13.2217 20.6904 14.7403C20.7479 14.8668 20.863 14.9473 21.0126 14.9473H21.4957C23.3018 14.9473 24.2913 13.958 24.2913 12.1633C24.2913 10.1961 23.1754 7.88377 20.0232 7.88377ZM18.5506 0.486475C17.4025 0.486475 16.4004 1.11571 15.8747 2.0464C15.8321 2.12233 15.8344 2.20634 15.8505 2.27882C15.8678 2.35475 15.9013 2.3951 15.9726 2.45492C17.0988 3.40402 17.8501 4.77875 17.9732 6.33297C17.9801 6.42041 18.01 6.47447 18.0629 6.53084C18.1158 6.58721 18.1951 6.62163 18.2998 6.63083C18.3815 6.63773 18.4655 6.64235 18.5506 6.64235C20.2418 6.64235 21.6223 5.26192 21.6223 3.55929C21.6223 1.86701 20.2418 0.486475 18.5506 0.486475ZM0.132324 12.1633C0.132324 13.958 1.12175 14.9473 2.92792 14.9473H3.41101C3.56056 14.9473 3.67564 14.8668 3.73316 14.7403C4.57297 13.2217 5.98797 12.0252 8.02423 11.542C8.28882 11.473 8.40391 11.1509 8.20833 10.9668C7.41454 10.2191 6.83929 9.24125 6.58619 8.14835C6.55168 7.99879 6.41359 7.88377 6.25253 7.88377H4.40036C1.24819 7.88377 0.132324 10.1961 0.132324 12.1633ZM2.80125 3.55816C2.80125 5.26079 4.18181 6.64122 5.87294 6.64122C5.95807 6.64122 6.04207 6.63661 6.12375 6.62971C6.22959 6.6205 6.30774 6.58609 6.36066 6.52972C6.41358 6.47335 6.44349 6.41928 6.4504 6.33185C6.57349 4.77763 7.32474 3.40276 8.451 2.45366C8.52118 2.39384 8.55578 2.35362 8.57304 2.2777C8.58914 2.20522 8.59145 2.12236 8.54888 2.04528C8.02199 1.11458 7.02106 0.485352 5.87294 0.485352C4.18181 0.486502 2.80125 1.86704 2.80125 3.55816Z" fill="#FFD600"/>
</svg>
