<svg width="34" height="32" viewBox="0 0 34 32" fill="none" xmlns="http://www.w3.org/2000/svg">
<path d="M18.8837 1.47889L22.4537 8.67941C22.7221 9.2217 23.2405 9.59675 23.8416 9.68315L32.0824 10.8743C33.5935 11.093 34.1965 12.946 33.1028 14.0086L27.145 19.79C26.7093 20.2128 26.5106 20.8212 26.6136 21.4187L27.9757 29.3307C28.2514 30.9355 26.5658 32.1597 25.1209 31.4042L17.9738 27.6634C17.437 27.3821 16.7972 27.3821 16.2623 27.6634L9.12053 31.4005C7.67381 32.1579 5.98254 30.9317 6.26012 29.3232L7.62244 21.4187C7.72539 20.8212 7.52674 20.2128 7.09107 19.79L1.13327 14.0086C0.0376518 12.946 0.640482 11.093 2.15338 10.8743L10.3944 9.68315C10.9937 9.59675 11.5121 9.2217 11.7824 8.67941L15.3523 1.47889C16.0711 0.0174545 18.1594 0.0174545 18.8837 1.47889Z" fill="#FFD600"/>
</svg>
