<svg width="25" height="24" viewBox="0 0 25 24" fill="none" xmlns="http://www.w3.org/2000/svg">
<path d="M22.9565 13.4359V19.8046C22.9565 22.3935 21.662 23.688 19.0731 23.688H15.6168C15.4019 23.688 15.2286 23.5145 15.2286 23.2997V19.3153C15.2286 18.0247 14.3547 16.8209 13.0822 16.606C11.4655 16.3342 10.0507 17.5885 10.0507 19.1574V23.2997C10.0507 23.5145 9.87721 23.688 9.66233 23.688H6.12847C3.53955 23.688 2.24509 22.3935 2.24509 19.8046V13.4359C3.00882 13.7983 3.85025 13.9795 4.7046 13.9795C6.18028 13.9795 7.59118 13.4618 8.67852 12.6074C9.76587 13.4618 11.1639 13.9795 12.6008 13.9795C14.0506 13.9795 15.4486 13.4618 16.536 12.6074C17.6233 13.4618 19.0342 13.9795 20.5099 13.9795C21.3513 13.9795 22.1927 13.7983 22.9565 13.4359ZM6.7757 0.387695C3.53955 0.387695 3.04372 1.44915 2.5104 3.0258L1.16427 7.00367C0.597294 8.67871 1.17071 10.6165 2.71629 11.5097C3.29751 11.8463 3.97714 12.0378 4.70333 12.0378C6.42497 12.0378 8.11933 10.9634 8.65782 9.44892C9.18337 10.9634 10.8779 12.0378 12.5995 12.0378C14.3211 12.0378 16.0155 10.9634 16.541 9.44892C17.0795 10.9634 18.7754 12.0378 20.4957 12.0378C21.2232 12.0378 21.9015 11.8463 22.4827 11.5097C24.0283 10.6165 24.6017 8.67871 24.0348 7.00367L22.6885 3.0258C22.1577 1.44915 21.662 0.387695 18.4258 0.387695H6.7757Z" fill="black"/>
</svg>
