<svg width="55" height="55" viewBox="0 0 55 55" fill="none" xmlns="http://www.w3.org/2000/svg">
<g opacity="0.5">
<path fill-rule="evenodd" clip-rule="evenodd" d="M18.8832 15.4505C18.8832 13.1741 19.7875 10.9909 21.3972 9.38119C23.0069 7.7715 25.1901 6.86719 27.4666 6.86719C29.743 6.86719 31.9262 7.7715 33.5359 9.38119C35.1456 10.9909 36.0499 13.1741 36.0499 15.4505C36.0499 17.727 35.1456 19.9102 33.5359 21.5199C31.9262 23.1295 29.743 24.0339 27.4666 24.0339C25.1901 24.0339 23.0069 23.1295 21.3972 21.5199C19.7875 19.9102 18.8832 17.727 18.8832 15.4505ZM36.0499 22.3172C36.0499 20.496 36.7734 18.7495 38.0611 17.4617C39.3489 16.174 41.0954 15.4505 42.9166 15.4505C44.7377 15.4505 46.4843 16.174 47.772 17.4617C49.0598 18.7495 49.7832 20.496 49.7832 22.3172C49.7832 24.1383 49.0598 25.8849 47.772 27.1727C46.4843 28.4604 44.7377 29.1839 42.9166 29.1839C41.0954 29.1839 39.3489 28.4604 38.0611 27.1727C36.7734 25.8849 36.0499 24.1383 36.0499 22.3172ZM5.1499 22.3172C5.1499 20.496 5.87335 18.7495 7.1611 17.4617C8.44885 16.174 10.1954 15.4505 12.0166 15.4505C13.8377 15.4505 15.5843 16.174 16.872 17.4617C18.1598 18.7495 18.8832 20.496 18.8832 22.3172C18.8832 24.1383 18.1598 25.8849 16.872 27.1727C15.5843 28.4604 13.8377 29.1839 12.0166 29.1839C10.1954 29.1839 8.44885 28.4604 7.1611 27.1727C5.87335 25.8849 5.1499 24.1383 5.1499 22.3172ZM14.4428 34.6017C15.8389 32.4135 17.7642 30.6127 20.0405 29.3657C22.3169 28.1187 24.871 27.4657 27.4666 27.4672C29.6406 27.4652 31.7905 27.9224 33.7757 28.8088C35.7608 29.6953 37.5363 30.991 38.9859 32.6112C40.4356 34.2313 41.5267 36.1394 42.1879 38.2104C42.8491 40.2815 43.0654 42.4688 42.8227 44.6293C42.7931 44.8977 42.7005 45.1553 42.5525 45.3812C42.4046 45.6071 42.2054 45.7949 41.9713 45.9294C37.5573 48.4621 32.5556 49.7912 27.4666 49.7839C22.1907 49.7839 17.2352 48.3831 12.9619 45.9294C12.7277 45.7949 12.5285 45.6071 12.3806 45.3812C12.2327 45.1553 12.1401 44.8977 12.1104 44.6293C11.726 41.1195 12.5486 37.5836 14.4428 34.6039V34.6017Z" fill="white"/>
<path d="M11.6318 32.626C9.37444 36.1105 8.32269 40.2395 8.63798 44.3794C7.26352 44.171 5.9117 43.8338 4.60038 43.3723L4.33716 43.2808C4.10231 43.1974 3.89666 43.0477 3.74513 42.8499C3.5936 42.6521 3.50269 42.4145 3.4834 42.1661L3.46051 41.8891C3.36805 40.74 3.50802 39.584 3.87206 38.4902C4.23611 37.3964 4.81677 36.3871 5.57939 35.5226C6.34202 34.658 7.27098 33.956 8.31085 33.4583C9.35072 32.9607 10.4802 32.6776 11.6318 32.626ZM46.2948 44.3794C46.6101 40.2395 45.5583 36.1105 43.3009 32.626C44.4526 32.6776 45.582 32.9607 46.6219 33.4583C47.6618 33.956 48.5907 34.658 49.3534 35.5226C50.116 36.3871 50.6966 37.3964 51.0607 38.4902C51.4247 39.584 51.5647 40.74 51.4722 41.8891L51.4494 42.1661C51.4296 42.4141 51.3385 42.6512 51.187 42.8486C51.0355 43.046 50.8301 43.1953 50.5956 43.2785L50.3324 43.37C49.0346 43.8278 47.6864 44.1688 46.2948 44.3794Z" fill="white"/>
</g>
</svg>
